<svg width="113" height="54" viewBox="0 0 113 54" fill="none" xmlns="http://www.w3.org/2000/svg">
<g clip-path="url(#clip0_313_340)">
<g clip-path="url(#clip1_313_340)">
<mask id="mask0_313_340" style="mask-type:luminance" maskUnits="userSpaceOnUse" x="0" y="0" width="52" height="54">
<path d="M30.6605 40.0653V21.1582L27.7322 19.4575V40.0653H30.6605ZM44.5141 28.737V27.0693L42.0243 25.6234V27.291L44.5141 28.737ZM42.0243 47.1717H44.5141V29.2056L42.0243 27.7597V47.1717ZM44.5141 47.5775H42.0243V49.0272H44.5141V47.5775ZM4.7642 47.5775V49.0272H12.8296V47.5775H4.7642ZM4.7642 32.9087V47.1717H12.8296V42.3267H6.90324V31.666L4.7642 32.9087ZM4.7642 30.7701V32.4378L6.90324 31.1964V29.5297L4.7642 30.7701ZM20.6002 47.1693V42.3267H15.0772V47.1717L20.6002 47.1693ZM21.0036 49.4303V53.9958H20.6002V49.4284H4.7642V52.4039H4.36079V49.4256H1.36549L1.36318 49.0202H4.36079V47.5706H1.36549L1.36318 47.1647H4.36079V33.1426L0.71024 35.2645L0.508304 34.9158L4.36264 32.6767V31.0067L0.203784 33.4243L0 33.0714L4.36079 30.5381V15.5247H4.7642V30.3038L10.3398 27.0646L12.8296 25.6173V17.6639L7.33067 20.8588L7.12874 20.5078L12.8315 17.1952V15.5285L7.26829 18.7578L7.06635 18.4063L17.4062 12.4005L28.4133 6.00635L28.4184 6.0031L32.9081 3.39395L38.7531 0L38.9546 0.351018L32.9081 3.86398V5.5326L38.7661 2.12889L38.9685 2.47991L32.9081 6.00031V19.8592L41.6602 24.9432L44.5141 26.6006V15.8581H44.917V26.835L52 30.9495L51.7981 31.3005L44.9156 27.3036V28.9713L51.7449 32.9385L51.543 33.2895L44.9156 29.4399V47.1717H50.5458V47.5775H44.9156V49.0272H50.5458V49.4326H44.9156V52.7424H44.5127V49.4307H21.0036V49.4303ZM21.0036 17.1097V47.1693H39.7771V26.4542L32.9081 22.4642V42.3267H25.4845V11.9634H25.8879V15.7809L27.3288 16.6178V10.7518H27.7322V16.8526L30.6605 18.5533V7.30582L17.6687 14.8525L15.2889 16.2347L15.0772 16.3579V25.6173L20.6002 28.8253V17.1139L21.0036 17.1097ZM18.756 40.063V30.3595L13.9553 27.57L9.14948 30.3595V40.0653L18.756 40.063Z" fill="white"/>
</mask>
<g mask="url(#mask0_313_340)">
<path d="M52 0H0V54H52V0Z" fill="url(#paint0_linear_313_340)"/>
</g>
</g>
<path d="M62.24 20.27V17H76.88V20.27H71.33V38H67.76V20.27H62.24ZM79.0948 24.2V38H75.8848V24.2H79.0948ZM83.2048 27.65C82.9048 27.41 82.6248 27.23 82.3648 27.11C82.1048 26.99 81.7748 26.93 81.3748 26.93C80.8348 26.93 80.3948 27.07 80.0548 27.35C79.7148 27.63 79.4648 28.02 79.3048 28.52C79.1648 29 79.0948 29.57 79.0948 30.23L78.0148 29.6C78.0148 28.5 78.2148 27.53 78.6148 26.69C79.0348 25.83 79.5648 25.15 80.2048 24.65C80.8648 24.15 81.5448 23.9 82.2448 23.9C82.7448 23.9 83.2148 23.98 83.6548 24.14C84.0948 24.28 84.4648 24.54 84.7648 24.92L83.2048 27.65ZM88.1284 33.71C88.1284 34.17 88.2384 34.57 88.4584 34.91C88.6784 35.23 88.9784 35.47 89.3584 35.63C89.7584 35.79 90.2084 35.87 90.7084 35.87C91.3484 35.87 91.9284 35.74 92.4484 35.48C92.9884 35.22 93.4184 34.84 93.7384 34.34C94.0784 33.82 94.2484 33.22 94.2484 32.54L94.7284 34.34C94.7284 35.22 94.4684 35.96 93.9484 36.56C93.4484 37.14 92.8084 37.58 92.0284 37.88C91.2684 38.16 90.4884 38.3 89.6884 38.3C88.8284 38.3 88.0284 38.13 87.2884 37.79C86.5484 37.45 85.9584 36.95 85.5184 36.29C85.0784 35.63 84.8584 34.83 84.8584 33.89C84.8584 32.55 85.3284 31.49 86.2684 30.71C87.2084 29.91 88.5384 29.51 90.2584 29.51C91.1784 29.51 91.9684 29.61 92.6284 29.81C93.3084 30.01 93.8684 30.25 94.3084 30.53C94.7484 30.79 95.0584 31.03 95.2384 31.25V32.9C94.6184 32.46 93.9584 32.14 93.2584 31.94C92.5584 31.74 91.8184 31.64 91.0384 31.64C90.3584 31.64 89.8084 31.73 89.3884 31.91C88.9684 32.07 88.6484 32.3 88.4284 32.6C88.2284 32.9 88.1284 33.27 88.1284 33.71ZM87.1084 27.8L85.7884 25.52C86.4084 25.14 87.2084 24.77 88.1884 24.41C89.1884 24.05 90.3284 23.87 91.6084 23.87C92.7484 23.87 93.7484 24.04 94.6084 24.38C95.4884 24.72 96.1784 25.21 96.6784 25.85C97.1784 26.47 97.4284 27.24 97.4284 28.16V38H94.2484V28.79C94.2484 28.35 94.1684 27.99 94.0084 27.71C93.8684 27.43 93.6684 27.2 93.4084 27.02C93.1484 26.84 92.8384 26.71 92.4784 26.63C92.1184 26.55 91.7284 26.51 91.3084 26.51C90.6684 26.51 90.0584 26.59 89.4784 26.75C88.9184 26.89 88.4284 27.07 88.0084 27.29C87.6084 27.49 87.3084 27.66 87.1084 27.8ZM106.726 27.2H99.7355V24.2H112.336L104.446 35H111.586V38H98.6855L106.726 27.2Z" fill="#161512"/>
</g>
<defs>
<linearGradient id="paint0_linear_313_340" x1="25.997" y1="49.434" x2="26.0035" y2="3.39674" gradientUnits="userSpaceOnUse">
<stop stop-color="#BA8D6D"/>
<stop offset="1" stop-color="#D8B798"/>
</linearGradient>
<clipPath id="clip0_313_340">
<rect width="113" height="54" fill="white"/>
</clipPath>
<clipPath id="clip1_313_340">
<rect width="52" height="54" fill="white"/>
</clipPath>
</defs>
</svg>
